<?xml version="1.0" encoding="UTF-8"?>
<svg id="Character-2" data-name="Character" xmlns="http://www.w3.org/2000/svg" width="800.000000000002728" height="800.000000000001819" viewBox="0 0 800.000000000002728 800.000000000001819">
  <defs>
    <style>
      .cls-1 {
        stroke-dasharray: 0 0 .09979359805584 9.97935962677002;
      }

      .cls-1, .cls-2, .cls-3, .cls-4, .cls-5, .cls-6, .cls-7, .cls-8, .cls-9, .cls-10, .cls-11, .cls-12 {
        stroke: #101050;
      }

      .cls-1, .cls-2, .cls-3, .cls-4, .cls-5, .cls-7, .cls-9, .cls-10 {
        stroke-miterlimit: 10;
      }

      .cls-1, .cls-2, .cls-3, .cls-4, .cls-6, .cls-7, .cls-13, .cls-8, .cls-9 {
        stroke-linecap: round;
      }

      .cls-1, .cls-2, .cls-3, .cls-7, .cls-13, .cls-8, .cls-9, .cls-10, .cls-12 {
        fill: none;
      }

      .cls-1, .cls-2, .cls-3, .cls-7, .cls-9 {
        stroke-width: 3px;
      }

      .cls-3 {
        stroke-dasharray: 0 0 .100000001490116 10;
      }

      .cls-4, .cls-5, .cls-6, .cls-13, .cls-8, .cls-10, .cls-11, .cls-12 {
        stroke-width: 2px;
      }

      .cls-4, .cls-6, .cls-14 {
        fill: #fff;
      }

      .cls-5, .cls-11, .cls-15 {
        fill: #101050;
      }

      .cls-6, .cls-13, .cls-8, .cls-11, .cls-12 {
        stroke-linejoin: round;
      }

      .cls-7 {
        stroke-dasharray: 0 0 .101652652025223 10.165265083312988;
      }

      .cls-13 {
        stroke: #fff;
      }

      .cls-9 {
        stroke-dasharray: 0 0 .100662760436535 10.066276550292969;
      }

      .cls-15, .cls-14, .cls-16 {
        stroke-width: 0px;
      }

      .cls-16 {
        fill: #00c1b6;
      }
    </style>
  </defs>
  <line class="cls-3" x1="330.030427476731347" y1="561.164381586880154" x2="330.030427476731347" y2="691.860855809567511"/>
  <line class="cls-3" x1="529.160491684173394" y1="463.10359379354486" x2="691.708860623180954" y2="463.10359379354486"/>
  <g>
    <path class="cls-2" d="m361.271923356758634,549.074743822771779c-.017887115478516,0-.034809112548828-.005111694335938-.049850463867188-.010955810546875"/>
    <path class="cls-9" d="m361.158695512520353,559.055273607928029v40.119827270507812c0,16.5,13.5,30,30,30h19.601539611816406"/>
    <line class="cls-2" x1="415.793400102364103" y1="629.175100878435842" x2="415.843403154121916" y2="629.175100878435842"/>
  </g>
  <circle class="cls-15" cx="365.496465466096197" cy="613.164527926276378" r="4.988470149111777"/>
  <path class="cls-3" d="m169.530385642532565,520.041036609309231v-44.184739231119238c0-16.5,13.5-30,30-30h69.570476590848557"/>
  <circle class="cls-15" cx="232.018315808927127" cy="445.782334527510329" r="4.988470149111095"/>
  <circle class="cls-15" cx="596.904216443090263" cy="397.410630183389912" r="4.988470149111436"/>
  <g>
    <path class="cls-2" d="m273.834484391914884,367.564335421282522c0,.018039703369141-.004219055175781.035093307495117-.011722564697266.050230026245117"/>
    <path class="cls-7" d="m263.680221849190275,367.677563265520803h-23.749641418457031c-16.499996185302734,0-29.999996185302734-13.499998092651367-29.999996185302734-29.999998092651367v-67.82275390625"/>
    <line class="cls-2" x1="209.930584245430509" y1="264.771277025896779" x2="209.930584245430509" y2="264.721273974138967"/>
  </g>
  <g>
    <path class="cls-2" d="m596.734386735664884,370.007393435198537c.004669189453125,0,.009307861328125.015462875366211.013824462890625.044095993041992"/>
    <path class="cls-1" d="m596.847606950508634,380.029065684038869v26.581875801086426c0,16.5-13.5,30-30,30h-72.533920288085938"/>
    <line class="cls-2" x1="489.320919328438322" y1="436.610941485125295" x2="489.270916276680509" y2="436.610941485125295"/>
  </g>
  <g>
    <path class="cls-8" d="m218.867422077521042,199.436315424980421v30.706045735099906h-15.631275595767875v-30.706045735099906h-5.613847696720768v-12.808197264367664h5.613847696720768v-6.531686079838437c0-3.617944833439651.345178443651093-6.50201458038282,1.036194697604515-8.652209240824959.5749677227559-1.808642733392844,1.49643262247082-3.490687069115666,2.763735332489887-5.046792373820608,1.265654293381886-1.554786571397017,2.748569899433278-2.897257080032432,4.447428084846251-4.028730259217809,1.697539452103229-1.130813812527776,3.525963185133151-2.007112096406672,5.483952465778202-2.62955421829156,1.956670547337126-.621782755226377,3.886307061839034-.933003816168821,5.786272076886235-.933003816168821,1.324008242307173,0,2.547792753126487.141763830727541,3.670364482475634.42397275887015,1.122901412674764.283527661448716,2.258990158439701.678488287516302,3.411563070570992,1.187519344817701v13.401627253449078c-1.036524380931951-.508371690646527-2.001177796519187-.890144983622122-2.893300880106835-1.14466051227464-.893112133568138-.25451552864979-1.828423733028103-.381773292975595-2.806594165032948-.381773292975595-.634310721663496,0-1.28213845974642.099564364834805-1.943153530919517.296714994541617-.662663487808459.19912872967052-1.28213845974642.608595422137114-1.856776499173066,1.229718810708619-.576286456065645.62310148853885-.964983098912853,1.513905838819483-1.166089928548899,2.672413050838259-.202425562942153,1.15982594532943-.302319611102575,2.728459216468764-.302319611102575,4.707218546733202v5.429225033453804h10.968234614883841v12.808197264367664h-10.968234614883841Z"/>
    <rect class="cls-8" x="147.366846951224943" y="127.532344945558179" width="135.029710327573412" height="132.623428644793421" rx="18.030828287042819" ry="18.030828287042819"/>
  </g>
  <polyline class="cls-8" points="535.23055810050937 209.365556578546602 514.214399334741756 230.381715344317854 506.958425243474267 223.125741252074477"/>
  <polyline class="cls-8" points="518.662879548393903 209.567315409154617 497.646720782626289 230.583474174925868 490.3907466913588 223.3275000826834"/>
  <polyline class="cls-8" points="518.662879548393903 261.838921117840982 497.646720782626289 282.855079883612234 490.3907466913588 275.599105791369766"/>
  <g>
    <g>
      <rect class="cls-8" x="500.063652322485723" y="113.281452746800824" width="192.696416812255848" height="250.483188054184211"/>
      <g>
        <rect class="cls-8" x="524.908476217580755" y="180.863861248448302" width="26.780705290693732" height="26.780705290689184"/>
        <rect class="cls-8" x="524.908476217580755" y="223.972758624554444" width="26.780705290693732" height="26.780705290695551"/>
        <rect class="cls-8" x="524.908476217580755" y="267.081656000664225" width="26.780705290693732" height="26.780705290689184"/>
        <rect class="cls-8" x="524.908476217580755" y="310.190553376767639" width="26.780705290693732" height="26.780705290694641"/>
      </g>
      <line class="cls-8" x1="567.048621543475747" y1="189.485495503170569" x2="650.703148795984816" y2="189.485495503170569"/>
      <line class="cls-8" x1="567.048621543475747" y1="199.02293228441431" x2="636.859372263224941" y2="199.02293228441431"/>
      <line class="cls-8" x1="567.048621543475747" y1="232.59439287927853" x2="655.901976852694133" y2="232.59439287927853"/>
      <line class="cls-8" x1="567.048621543475747" y1="242.131829660525" x2="614.592326343823515" y2="242.131829660525"/>
      <line class="cls-8" x1="567.048621543475747" y1="275.703290255384672" x2="647.186840337548347" y2="275.703290255384672"/>
      <line class="cls-8" x1="567.048621543475747" y1="285.240727036632961" x2="657.187372525695537" y2="285.240727036632961"/>
      <g>
        <line class="cls-8" x1="567.048621543475747" y1="318.812187631491724" x2="662.136031144164008" y2="318.812187631491724"/>
        <line class="cls-8" x1="567.048621543475747" y1="328.349624412744561" x2="628.511585907159315" y2="328.349624412744561"/>
      </g>
    </g>
    <polyline class="cls-8" points="557.714896750650951 181.896258368420604 540.245374952302882 199.36578016677322 534.213901790702948 193.334307004362927"/>
    <g>
      <path class="cls-15" d="m587.439831071602384,149.854925707537404c-1.11376953125,1.076171875-2.8115234375,1.61376953125-5.09423828125,1.61376953125h-3.7607421875v8.1669921875h-2.5537109375v-19.5615234375h6.314453125c2.20751953125,0,3.88720703125.533203125,5.0380859375,1.599609375,1.150390625,1.06640625,1.72607421875,2.44189453125,1.72607421875,4.12548828125,0,1.6279296875-.55712890625,2.97998046875-1.669921875,4.0556640625Zm-1.95068359375-1.41748046875c.67333984375-.6171875,1.01025390625-1.49658203125,1.01025390625-2.63818359375,0-2.41357421875-1.384765625-3.6201171875-4.15380859375-3.6201171875h-3.7607421875v7.1845703125h3.7607421875c1.421875,0,2.47021484375-.30859375,3.1435546875-.92626953125Z"/>
      <path class="cls-15" d="m595.999401384102384,142.150824145037404v6.5390625h7.12890625v2.10498046875h-7.12890625v6.73583984375h7.970703125v2.10498046875h-10.5244140625v-19.58984375h10.5244140625v2.10498046875h-7.970703125Z"/>
      <path class="cls-15" d="m620.422252946602384,149.854925707537404c-1.11376953125,1.076171875-2.8115234375,1.61376953125-5.09423828125,1.61376953125h-3.7607421875v8.1669921875h-2.5537109375v-19.5615234375h6.314453125c2.20751953125,0,3.88720703125.533203125,5.0380859375,1.599609375,1.150390625,1.06640625,1.72607421875,2.44189453125,1.72607421875,4.12548828125,0,1.6279296875-.55712890625,2.97998046875-1.669921875,4.0556640625Zm-1.95068359375-1.41748046875c.67333984375-.6171875,1.01025390625-1.49658203125,1.01025390625-2.63818359375,0-2.41357421875-1.384765625-3.6201171875-4.15380859375-3.6201171875h-3.7607421875v7.1845703125h3.7607421875c1.421875,0,2.47021484375-.30859375,3.1435546875-.92626953125Z"/>
    </g>
  </g>
  <rect class="cls-4" x="264.142887856439302" y="202.584608484829943" width="289.029478991661563" height="363.053442113029178" rx="31.087801710124531" ry="31.087801710124531"/>
  <path class="cls-10" d="m502.823470379293212,330.081138188340447c0,37.128387746285625-21.488992892391252,69.234880365605022-52.711416146699776,84.563972727147302-12.50784230570207,6.150486988725788-26.576725414599423,9.601870370708639-41.454426951146161,9.601870370708639-8.040714768205362,0-15.855734123910224-1.006273213749409-23.304027134136049-2.905971934997069-40.739686545157383-10.372977230177639-70.861815963718982-47.29449664823187-70.861815963718982-91.259871162858872,0-52.006089282823268,42.159753815021759-94.165843097854122,94.165843097855031-94.165843097854122,52.006089282824178,0,94.165843097845936,42.159753815030854,94.165843097845936,94.165843097854122Z"/>
  <g>
    <rect class="cls-6" x="292.763009463589754" y="488.38492757173475" width="231.789235626297284" height="5.794005529861465" rx="2.896999810645895" ry="2.896999810645895"/>
    <g>
      <path class="cls-15" d="m294.727428727852384,461.668890551287404c0-.798828125.19970703125-1.53125.59912109375-2.19677734375s.99853515625-1.1943359375,1.79736328125-1.58642578125,1.77490234375-.58837890625,2.9287109375-.58837890625c1.13916015625,0,2.111328125.1962890625,2.91796875.58837890625.80615234375.39208984375,1.4091796875.9208984375,1.80859375,1.58642578125s.59912109375,1.39794921875.59912109375,2.19677734375c0,.82861328125-.2109375,1.556640625-.6328125,2.185546875-.42138671875.62890625-.97998046875,1.11328125-1.6748046875,1.453125.8427734375.310546875,1.5087890625.81787109375,1.99658203125,1.52001953125.48828125.70263671875.732421875,1.52783203125.732421875,2.47412109375,0,.9619140625-.244140625,1.81201171875-.732421875,2.5517578125-.48779296875.73974609375-1.16845703125,1.30908203125-2.041015625,1.70849609375-.873046875.3994140625-1.8642578125.59912109375-2.9736328125.59912109375s-2.0966796875-.19970703125-2.9619140625-.59912109375c-.86572265625-.3994140625-1.54248046875-.96875-2.0302734375-1.70849609375-.48828125-.73974609375-.732421875-1.58984375-.732421875-2.5517578125,0-.96142578125.244140625-1.78955078125.732421875-2.4853515625.48779296875-.69482421875,1.14599609375-1.1982421875,1.974609375-1.5087890625-1.53857421875-.76904296875-2.3076171875-1.98193359375-2.3076171875-3.638671875Zm2.93994140625,5.46923828125c-.61376953125.48095703125-.9208984375,1.1728515625-.9208984375,2.07470703125,0,.84326171875.2958984375,1.52783203125.8876953125,2.052734375.59130859375.52490234375,1.39794921875.78759765625,2.41845703125.78759765625,1.005859375,0,1.80078125-.26611328125,2.38525390625-.798828125s.87646484375-1.212890625.87646484375-2.04150390625c0-.8876953125-.29931640625-1.5751953125-.8984375-2.0634765625s-1.38671875-.732421875-2.36328125-.732421875c-.97607421875,0-1.771484375.24072265625-2.38525390625.72119140625Zm4.515625-7.06689453125c-.51806640625-.44384765625-1.22802734375-.666015625-2.13037109375-.666015625-.88720703125,0-1.59033203125.22216796875-2.10791015625.666015625-.51806640625.44384765625-.7763671875,1.0869140625-.7763671875,1.93017578125,0,.740234375.26953125,1.3427734375.8095703125,1.80859375s1.2314453125.69873046875,2.07470703125.69873046875,1.53857421875-.236328125,2.0859375-.7099609375c.546875-.47314453125.82080078125-1.07958984375.82080078125-1.8193359375,0-.828125-.2587890625-1.46435546875-.7763671875-1.908203125Z"/>
      <path class="cls-15" d="m310.414440446602384,470.322210863787404c1.42041015625-1.2275390625,2.541015625-2.2373046875,3.36181640625-3.02880859375.82080078125-.791015625,1.5048828125-1.61572265625,2.052734375-2.4736328125.546875-.85791015625.82080078125-1.7158203125.82080078125-2.57421875,0-.8876953125-.2109375-1.58251953125-.63232421875-2.08544921875-.421875-.5029296875-1.083984375-.7548828125-1.98583984375-.7548828125-.873046875,0-1.5498046875.27734375-2.0302734375.83251953125-.48095703125.5546875-.736328125,1.2978515625-.765625,2.22998046875h-2.44091796875c.04443359375-1.6865234375.55078125-2.97705078125,1.52001953125-3.8720703125.96875-.89501953125,2.2001953125-1.34228515625,3.6943359375-1.34228515625,1.6123046875,0,2.87353515625.443359375,3.783203125,1.3310546875s1.36474609375,2.0712890625,1.36474609375,3.55029296875c0,1.06494140625-.27001953125,2.08935546875-.81005859375,3.0732421875s-1.18359375,1.86376953125-1.93017578125,2.64013671875c-.7470703125.77685546875-1.69775390625,1.67529296875-2.8515625,2.6962890625l-.99853515625.88720703125h7.0341796875v2.1083984375h-10.78369140625v-1.841796875l1.59716796875-1.3759765625Z"/>
      <path class="cls-15" d="m330.916881852852384,452.815374926287404l-6.03515625,24.82958984375h-2.4853515625l6.01318359375-24.82958984375h2.50732421875Z"/>
      <path class="cls-15" d="m334.000866227852384,459.893499926287404v-2.3076171875h4.615234375v16.17578125h-2.5517578125v-13.8681640625h-2.0634765625Z"/>
      <path class="cls-15" d="m343.952526384102384,459.460882738787404c.865234375-1.4423828125,2.35546875-2.16357421875,4.47119140625-2.16357421875,2.115234375,0,3.60546875.72119140625,4.470703125,2.16357421875.86572265625,1.4423828125,1.29833984375,3.443359375,1.29833984375,6.001953125,0,2.5888671875-.4326171875,4.61181640625-1.29833984375,6.06884765625-.865234375,1.45703125-2.35546875,2.185546875-4.470703125,2.185546875-2.11572265625,0-3.60595703125-.728515625-4.47119140625-2.185546875s-1.2978515625-3.47998046875-1.2978515625-6.06884765625c0-2.55859375.4326171875-4.5595703125,1.2978515625-6.001953125Zm7.52197265625,2.96240234375c-.1552734375-.82861328125-.4697265625-1.50537109375-.94287109375-2.0302734375-.4736328125-.52490234375-1.17626953125-.7880859375-2.10791015625-.7880859375-.93212890625,0-1.634765625.26318359375-2.10791015625.7880859375-.4736328125.52490234375-.7880859375,1.20166015625-.943359375,2.0302734375s-.23291015625,1.84130859375-.23291015625,3.03955078125c0,1.24267578125.07373046875,2.28564453125.22216796875,3.12890625.1474609375.84326171875.4619140625,1.5234375.94287109375,2.04150390625.48046875.517578125,1.18701171875.7763671875,2.119140625.7763671875.931640625,0,1.63818359375-.2587890625,2.119140625-.7763671875.48046875-.51806640625.794921875-1.1982421875.94287109375-2.04150390625.1474609375-.84326171875.2216796875-1.88623046875.2216796875-3.12890625,0-1.1982421875-.07763671875-2.2109375-.23291015625-3.03955078125Z"/>
      <path class="cls-15" d="m358.729870134102384,459.460882738787404c.865234375-1.4423828125,2.35546875-2.16357421875,4.47119140625-2.16357421875,2.115234375,0,3.60546875.72119140625,4.470703125,2.16357421875.86572265625,1.4423828125,1.29833984375,3.443359375,1.29833984375,6.001953125,0,2.5888671875-.4326171875,4.61181640625-1.29833984375,6.06884765625-.865234375,1.45703125-2.35546875,2.185546875-4.470703125,2.185546875-2.11572265625,0-3.60595703125-.728515625-4.47119140625-2.185546875s-1.2978515625-3.47998046875-1.2978515625-6.06884765625c0-2.55859375.4326171875-4.5595703125,1.2978515625-6.001953125Zm7.52197265625,2.96240234375c-.1552734375-.82861328125-.4697265625-1.50537109375-.94287109375-2.0302734375-.4736328125-.52490234375-1.17626953125-.7880859375-2.10791015625-.7880859375-.93212890625,0-1.634765625.26318359375-2.10791015625.7880859375-.4736328125.52490234375-.7880859375,1.20166015625-.943359375,2.0302734375s-.23291015625,1.84130859375-.23291015625,3.03955078125c0,1.24267578125.07373046875,2.28564453125.22216796875,3.12890625.1474609375.84326171875.4619140625,1.5234375.94287109375,2.04150390625.48046875.517578125,1.18701171875.7763671875,2.119140625.7763671875.931640625,0,1.63818359375-.2587890625,2.119140625-.7763671875.48046875-.51806640625.794921875-1.1982421875.94287109375-2.04150390625.1474609375-.84326171875.2216796875-1.88623046875.2216796875-3.12890625,0-1.1982421875-.07763671875-2.2109375-.23291015625-3.03955078125Z"/>
    </g>
    <rect class="cls-5" x="293.462726377965396" y="488.384927574643257" width="190.067168164965494" height="5.794005561742608" rx="2.896999833945575" ry="2.896999833945575"/>
    <line class="cls-8" x1="295.789368913419821" y1="516.589828039884196" x2="398.402114337370222" y2="516.589828039884196"/>
    <line class="cls-8" x1="295.789368913419821" y1="529.777732284647755" x2="434.634796457534321" y2="529.777732284647755"/>
  </g>
  <g>
    <path class="cls-8" d="m363.940013483961593,370.362105864482146c6.862202461252309-18.208216647376503,24.445013532949815-31.153069004402823,45.053691840783358-31.153069004402823,20.608678307837181,0,38.195871304767934,12.944852357026321,45.058100649001062,31.153069004402823"/>
    <circle class="cls-8" cx="409.306922216409475" cy="308.441382293533024" r="22.275353670903314"/>
  </g>
  <polyline class="cls-8" points="107.741317309801161 527.058900013546918 169.245727450019331 581.322141566844948 231.968704354416332 527.100031397716521"/>
  <line class="cls-8" x1="153.732963916372682" y1="568.06135197769072" x2="107.542403166457007" y2="607.991690066926822"/>
  <line class="cls-8" x1="231.76979021108491" y1="608.032821451109157" x2="185.534498862854889" y2="567.24100218161675"/>
  <rect class="cls-8" x="420.100822806221515" y="600.644755775808108" width="247.497225688572087" height="56.41347473486735" rx="28.206709087225253" ry="28.206709087225253"/>
  <g>
    <circle class="cls-16" cx="660.778592085043329" cy="654.999882649394976" r="24.548467023433865" transform="translate(-200.358658077173345 302.72750165470336) rotate(-22.499972370000773)"/>
    <line class="cls-13" x1="669.740584239458258" y1="646.035630021902762" x2="651.816697157584713" y2="663.959517103769031"/>
    <line class="cls-13" x1="651.816697157995804" y1="646.035630021498946" x2="669.740584239056261" y2="663.95951710416557"/>
  </g>
  <g>
    <circle class="cls-16" cx="281.144321460671563" cy="132.687461657220638" r="24.548467023432696" transform="translate(-29.376448954593229 117.689358066158164) rotate(-22.499972789258482)"/>
    <line class="cls-13" x1="290.106313615087856" y1="123.723209029729333" x2="272.182426533214311" y2="141.647096111595602"/>
    <line class="cls-13" x1="272.182426533625403" y1="123.723209029326426" x2="290.106313614684041" y2="141.647096111992141"/>
  </g>
  <path class="cls-11" d="m463.954767648405323,636.643331798986765c-1.035551543707697-2.161841723136604-2.80153913234426-3.57224684067296-5.324701163597638-4.201741220132135-.378999640401162-.094543700549366-.781712413892819-.000658841117001-1.084125634622978.246572575520076l-2.095431310444837,1.712144055566569c-.40913904799163.334361867806365-.987439413640459.377349964010136-1.437095903644149.099979139780771-2.21648950562485-1.367269039436906-4.010054484924694-3.160792841169496-5.377408453103271-5.377408453099633-.277370824225727-.4496564900046-.234382728020137-1.027960716049165.099979139789866-1.437095903644149l1.71214405556384-2.095431310438471c.247231416637078-.302573427222342.341113702472285-.70513886221579.246572575517348-1.084125634630254-.629535557030977-2.523034638144964-2.039940674563695-4.289108442319957-4.201741220129406-5.324701163591271-.348855085621835-.167014655341518-.760123786058102-.157792970724586-1.101245209325498.024376880116506-1.087077551672337.580623600927538-2.127055362443571,1.237482727504357-3.112344213155666,1.976186134702402-.377350607410335.282806263458951-.567594197464132.750594073918364-.489207867614823,1.215556395341082.708259671633641,4.194993889259422,2.975010261752686,8.606467914614768,6.658406301448849,12.290075632758089,3.683396683094543,3.683396683094543,8.094995527961146,5.950019880107902,12.290076276156469,6.65840533635037.464961678024338.07840209313963.932581882907471-.111835706326929,1.215556717041181-.489207545919271.738746193268526-.985289172408557,1.395605641540897-2.02526730487898,1.976186215122652-3.112344856552227.182004859078006-.341282273150682.191395918618582-.752743993446529.024212411117333-1.101413780002076l.000167283880728.000173717873622Z"/>
  <circle class="cls-15" cx="209.856618839438852" cy="309.986540680706867" r="4.988470149112004"/>
  <line class="cls-12" x1="483.853864170570887" y1="627.179515448566235" x2="502.680045210297976" y2="627.179515448566235"/>
  <line class="cls-12" x1="513.108668872608177" y1="627.179515448566235" x2="531.934849912333448" y2="627.179515448566235"/>
  <line class="cls-12" x1="541.349952267541084" y1="627.179515448566235" x2="582.65628241709237" y2="627.179515448566235"/>
  <line class="cls-12" x1="592.694361892745292" y1="627.179515448566235" x2="634.000692042296578" y2="627.179515448566235"/>
  <g>
    <path class="cls-16" d="m652.110990192595636,338.512096340366043l-30.225281677761814,52.351723538966326c-2.087395287386244,3.6154746932325.521848821850654,8.134818059783356,4.696639396626779,8.134818059783356h60.450563355525446c4.174790574777944,0,6.784034684013022-4.519343366550856,4.696639396623141-8.134818059783356l-30.225281677761814-52.351723538966326c-2.087395287388063-3.615474693242504-7.305883505860038-3.615474693242504-9.393278793251739,0Z"/>
    <path class="cls-14" d="m655.349010759102384,386.701117113787404c-.39208984375-.4052734375-.587890625-.90478515625-.587890625-1.49951171875,0-.59375.19580078125-1.0869140625.587890625-1.47900390625.39111328125-.39111328125.88427734375-.58740234375,1.47900390625-.58740234375.5673828125,0,1.046875.1962890625,1.4384765625.58740234375.3916015625.39208984375.587890625.88525390625.587890625,1.47900390625,0,.5947265625-.1962890625,1.09423828125-.587890625,1.49951171875s-.87109375.60791015625-1.4384765625.60791015625c-.5947265625,0-1.087890625-.20263671875-1.47900390625-.60791015625Zm2.8974609375-27.9208984375l-.36474609375,20.8291015625h-2.39111328125l-.32421875-20.8291015625h3.080078125Z"/>
  </g>
  <polygon class="cls-8" points="231.769532721185897 608.207337043799271 107.239930865260249 608.215712926590641 107.439399583012346 527.057281526066618 231.969001438939813 527.048905643272519 231.769532721185897 608.207337043799271"/>
  <g>
    <circle class="cls-16" cx="229.370324196871024" cy="608.712366839373544" r="24.548467023433087" transform="translate(-215.484135008367502 134.111480524793876) rotate(-22.499972649833605)"/>
    <line class="cls-13" x1="238.332316351286863" y1="599.748114211882239" x2="220.408429269413318" y2="617.672001293747599"/>
    <line class="cls-13" x1="220.408429269822591" y1="599.748114211479333" x2="238.332316350883048" y2="617.672001294144138"/>
  </g>
</svg>